<?xml version="1.0" encoding="utf-8"?>
<!-- Generator: Adobe Illustrator 24.2.1, SVG Export Plug-In . SVG Version: 6.00 Build 0)  -->
<svg version="1.1"
	 id="Layer_1" xmlns:cc="http://creativecommons.org/ns#" xmlns:dc="http://purl.org/dc/elements/1.1/" xmlns:rdf="http://www.w3.org/1999/02/22-rdf-syntax-ns#"
	 xmlns="http://www.w3.org/2000/svg" xmlns:xlink="http://www.w3.org/1999/xlink" x="0px" y="0px" viewBox="0 0 6000 6000"
	 style="enable-background:new 0 0 6000 6000;" xml:space="preserve">
<style type="text/css">
	.st0{fill:#43A948;}
	.st1{clip-path:url(#SVGID_2_);}
	.st2{fill:#FFFFFF;}
	.st3{fill:#006838;}
	.st4{clip-path:url(#SVGID_4_);fill:#006838;}
</style>
<g>
	<circle class="st0" cx="3006" cy="3010.6" r="2512.3"/>
	<g>
		<g>
			<defs>
				<circle id="SVGID_1_" cx="3004.6" cy="3003" r="2040.3"/>
			</defs>
			<clipPath id="SVGID_2_">
				<use xlink:href="#SVGID_1_"  style="overflow:visible;"/>
			</clipPath>
			<g class="st1">
				<path class="st2" d="M3014.9,1086.8c-1062.5,0-1923.8,861.3-1923.8,1923.8c0,882.7,594.6,1626.8,1405.7,1853.5v-235.7H3611
					v212.2c771-251.5,1328.5-975.7,1328.5-1830.1C4939.4,1948.1,4077.4,1086.8,3014.9,1086.8z"/>
				<polygon class="st3" points="2496.8,4627.8 2496.8,4863.4 2496.8,5346.4 3611,5346.4 3611,4840 3611,4627.8 				"/>
			</g>
		</g>
		<g>
			<defs>
				<circle id="SVGID_3_" cx="3004.6" cy="3003" r="2040.3"/>
			</defs>
			<clipPath id="SVGID_4_">
				<use xlink:href="#SVGID_3_"  style="overflow:visible;"/>
			</clipPath>
			<path class="st4" d="M1025.7,2065.9c0-267.3,243.2-718,474.8-851.7L1892.5,982l592.6-124c304.6-67.5,577.4-79.2,836.5-40
				c306.6,22.7,613.3,44.8,778.6,204.6l371.4,191.6c185.4,89.6,490.6,547.1,489.9,815.1l217.7,546.4v767.6
				c0,267.3-77.9,642.2-309.4,775.9L4504,4485.1l-625.7,448.6l-611.2,339.7c-30.3,17.9-31.7-545-31.7-545v-644.3l931.6-535.4
				c102-58.6,137.1-189.5,77.9-290.8c-58.6-101.3-190.2-136.4-292.2-77.9l-716.6,413.4v-647.7l931.6-535.4
				c102-58.6,137.1-188.8,77.9-290.1c-58.6-101.3-190.2-136.4-292.2-77.9l-717.3,412V1762c0-117.1-95.8-212.9-213.6-212.9
				c-117.1,0-213.6,95.8-213.6,212.9v693.9l-713.9-412.7c-101.3-58.6-231.5-23.4-290.8,77.9c-58.6,101.3-23.4,231.5,77.9,290.1
				l926.8,535.4v647.7l-713.9-412c-101.3-58.6-231.5-23.4-290.8,77.9c-58.6,101.3-23.4,232.2,77.9,290.1l926.8,534.7v643.6
				c3.4,46.9,3.4,562.3-26.9,545l-547.1-228.1l-387.2-221.9l-490.6-476.1c-169.5-66.8-482.3-697.3-482.3-965.4l31-753.1"/>
		</g>
	</g>
</g>
</svg>
