<?xml version="1.0" encoding="utf-8"?>
<!-- Generator: Adobe Illustrator 24.2.1, SVG Export Plug-In . SVG Version: 6.00 Build 0)  -->
<svg version="1.1"
	 id="Wazn-Logo" xmlns:cc="http://creativecommons.org/ns#" xmlns:dc="http://purl.org/dc/elements/1.1/" xmlns:rdf="http://www.w3.org/1999/02/22-rdf-syntax-ns#" xmlns:svg="http://www.w3.org/2000/svg"
	 xmlns="http://www.w3.org/2000/svg" xmlns:xlink="http://www.w3.org/1999/xlink" x="0px" y="0px" viewBox="0 0 282 75"
	 style="enable-background:new 0 0 282 75;" xml:space="preserve">
<style type="text/css">
	.st0{fill-rule:evenodd;clip-rule:evenodd;fill:#48A34A;}
	.st1{clip-path:url(#SVGID_2_);}
	.st2{fill:#FFFFFF;}
	.st3{fill:#006838;}
	.st4{clip-path:url(#SVGID_2_);fill-rule:evenodd;clip-rule:evenodd;fill:#006838;}
	.st5{fill:#006938;}
</style>
<g>
	<circle class="st0" cx="37.7" cy="37.6" r="36.8"/>
	<g>
		<defs>
			<circle id="SVGID_1_" cx="37.7" cy="37.3" r="29.9"/>
		</defs>
		<clipPath id="SVGID_2_">
			<use xlink:href="#SVGID_1_"  style="overflow:visible;"/>
		</clipPath>
		<g class="st1">
			<path class="st2" d="M10,35.9c-0.7,13.6,8.1,25.3,20.4,28.7v-3.5h16.2v3.1C57.9,60.6,66,50,66,37.5C66,21.7,53.2,9,37.5,9.3
				C22.8,9.5,10.7,21.2,10,35.9z"/>
			<polygon class="st3" points="30.4,61.2 30.4,64.6 30.4,71.6 46.6,71.6 46.6,64.2 46.6,61.2 			"/>
		</g>
		<path class="st4" d="M8.6,23.6c0-3.9,3.6-10.5,7-12.5l5.7-3.4L30,5.9c4.5-1,8.5-1.2,12.3-0.6c4.5,0.3,9,0.7,11.4,3l5.4,2.8
			c2.7,1.3,7.2,8,7.2,11.9l3.2,8v11.3c0,3.9-1.1,9.4-4.5,11.3l-5.3,5.3l-9.2,6.6l-8.9,5c-0.4,0.3-0.5-8-0.5-8v-9.2l13.8-7.9
			c1.5-0.9,2-2.8,1.2-4.3c-0.9-1.5-2.8-2-4.3-1.2L41,46.1v-9.6l13.8-7.9c1.5-0.9,2-2.8,1.2-4.3c-0.9-1.5-2.8-2-4.3-1.2L41,29.2V19
			c0-1.7-1.4-3.2-3.2-3.2c-1.7,0-3.2,1.4-3.2,3.2v10.3l-10.6-6.1c-1.5-0.9-3.4-0.3-4.3,1.2c-0.9,1.5-0.3,3.4,1.2,4.3l13.8,7.9v9.6
			L24.1,40c-1.5-0.9-3.4-0.3-4.3,1.2c-0.9,1.5-0.3,3.4,1.2,4.3l13.8,7.9v9.2c0.1,0.7,0.1,8.2-0.4,8l-8-3.3L20.6,64l-7.2-7
			c-2.5-1-7.1-10.2-7.1-14.2l0.5-11"/>
	</g>
</g>
<g>
	<path class="st5" d="M79.8,15.4h5.9l13.6,32.3l14.3-32.3h1l14.2,32.3l13.8-32.3h6l-19.3,44.4h-1.1L114.1,28L99.8,59.8h-1.1
		L79.8,15.4z"/>
	<path class="st5" d="M174.1,15.3c6.5,0,11.9,2.3,16.2,7c3.9,4.3,5.9,9.4,5.9,15.3c0.1,14.6,0.1,22,0,22.2c-2.5,0-4.4,0-5.7,0
		c0-0.2,0-3.4,0-9.6c-3,5.6-8.5,8.7-16.3,9.4c-6.5,0-11.7-2.2-15.8-6.6c-4.1-4.4-6.1-9.5-6.1-15.4c0-5.8,1.9-10.9,5.8-15.2
		C162.2,17.7,167.6,15.3,174.1,15.3z M174.1,20.6c-4.5,0-8.3,1.7-11.6,5c-3.2,3.3-4.8,7.4-4.8,12.1c0,3.1,0.8,6,2.5,8.8
		c1.7,2.8,4.5,5.2,8.4,7.2c9.9,2.2,16.9-2.3,21.1-13.5c0.2-3.6-0.2-7-1.2-10.3c-0.7-1.5-1.7-2.9-3-4.2
		C182.4,22.3,178.5,20.6,174.1,20.6z"/>
	<path class="st5" d="M205.2,15.2h32.1l-24.8,39.5h24v5.2h-33.7l24.7-39.5h-22.4V15.2z"/>
	<path class="st5" d="M242.6,43.4l-0.1-4.6c-0.1-2.3,0-4.2,0.3-5.8c0.6-5,1.8-8.6,3.8-10.9c1.9-2,3.8-3.6,5.8-4.7
		c3.3-1.4,7-2.1,11.2-2c3.3,0,6.3,0.8,9.1,2.5c2.8,1.6,4.8,3.9,5.9,6.6c1.2,2.8,1.8,7.1,1.8,13.1v22.3h-5.6V39.2c0-5-0.2-8.3-0.6-10
		c-0.7-2.9-2-4.9-3.9-6.1c-1.9-1.2-4.8-1.8-8.6-1.8c-3.4,0-6.4,1-9,2.9c-2.6,1.9-3.9,4.6-3.7,8c-0.5,2.2-0.8,6.1-0.8,11.8v15.9h-5.6
		V43.4z"/>
</g>
</svg>
